<svg width="3593" height="3234" viewBox="0 0 3593 3234" fill="none" xmlns="http://www.w3.org/2000/svg">
<path fill-rule="evenodd" clip-rule="evenodd" d="M603.37 0L0 0L1796.49 3233.68L3592.98 0H2964.21H2335.44L2133.39 330.464L2624.51 778.464C2624.51 778.464 2639.37 797.295 2617.75 817.471C2601.54 836.302 2575.88 820.161 2575.88 820.161L2128.95 337.731L2026.8 504.803L2712.31 1132.21C2712.31 1132.21 2742.02 1173.91 2702.85 1216.95C2665.03 1257.31 2613.7 1220.99 2613.7 1220.99L1994.81 557.127L1893.27 723.207L2673.13 1437.54C2673.13 1437.54 2716.36 1496.73 2660.98 1553.22C2604.25 1616.44 2531.31 1565.32 2531.31 1565.32L1835.45 817.771L1796.49 881.493L1608.39 573.847L1074.23 0L652.193 0L2505.64 1730.77C2505.64 1730.77 2550.22 1791.29 2493.48 1850.48C2438.1 1909.66 2365.16 1858.55 2365.16 1858.55L603.37 0ZM1103.72 0L1453.34 320.25L1257.54 0H1103.72ZM2197.67 1893.52L428.187 275.411L2055.84 2023.99C2055.84 2023.99 2128.78 2072.41 2185.51 2011.88C2240.89 1952.7 2197.67 1893.52 2197.67 1893.52ZM1820.81 1933.87L584.874 801.33L1722.21 2023.99C1722.21 2023.99 1773.53 2058.96 1812.71 2017.27C1850.53 1975.57 1820.81 1933.87 1820.81 1933.87ZM1434.5 1877.38L869.882 1364.91L1384.52 1919.08C1384.52 1919.08 1410.18 1936.56 1429.09 1916.39C1449.35 1897.55 1434.5 1877.38 1434.5 1877.38Z" fill="url(#paint0_linear)"/>
<defs>
<linearGradient id="paint0_linear" x1="1815.4" y1="0" x2="1815.4" y2="2978.39" gradientUnits="userSpaceOnUse">
<stop stop-color="#3D4A5D"/>
<stop offset="0.276042" stop-color="#73B685"/>
<stop offset="1" stop-color="#3D4A5D"/>
</linearGradient>
</defs>
</svg>
