<svg width="150" height="171" viewBox="0 0 150 171" fill="none" xmlns="http://www.w3.org/2000/svg">
<path fill-rule="evenodd" clip-rule="evenodd" d="M25.1896 0H0L75 135L150 0H123.75H97.5L89.0649 13.7962L109.568 32.4993C109.568 32.4993 110.188 33.2855 109.286 34.1278C108.609 34.914 107.538 34.2401 107.538 34.2401L88.8794 14.0996L84.615 21.0745L113.234 47.2678C113.234 47.2678 114.474 49.0085 112.839 50.8054C111.26 52.49 109.117 50.9739 109.117 50.9739L83.2794 23.259L79.0402 30.1924L111.598 60.0146C111.598 60.0146 113.403 62.4854 111.091 64.8439C108.722 67.4831 105.677 65.3492 105.677 65.3492L76.6265 34.1403L75 36.8006L67.1473 23.9569L44.8471 0H27.2278L104.606 72.2561C104.606 72.2561 106.467 74.783 104.098 77.2538C101.786 79.7246 98.741 77.5907 98.741 77.5907L25.1896 0ZM46.078 0L60.6743 13.3697L52.5 0H46.078ZM91.7485 79.0507L17.876 11.4979L85.8274 84.4976C85.8274 84.4976 88.8725 86.5192 91.241 83.9922C93.553 81.5215 91.7485 79.0507 91.7485 79.0507ZM76.0153 80.7353L24.4174 33.454L71.8988 84.4976C71.8988 84.4976 74.0416 85.9576 75.677 84.2169C77.2559 82.4761 76.0153 80.7353 76.0153 80.7353ZM59.8874 78.3769L36.3159 56.9823L57.801 80.1176C57.801 80.1176 58.8724 80.8476 59.6619 80.0053C60.5077 79.2192 59.8874 78.3769 59.8874 78.3769Z" fill="url(#paint0_linear)"/>
<path d="M12.028 159.1C12.1583 159.345 12.2772 159.602 12.3845 159.87C12.4995 160.131 12.6107 160.396 12.718 160.664C12.8253 160.388 12.9365 160.116 13.0515 159.847C13.1665 159.579 13.2892 159.322 13.4195 159.077L18.3415 149.865C18.4028 149.75 18.4642 149.658 18.5255 149.589C18.5945 149.52 18.6673 149.471 18.744 149.44C18.8283 149.409 18.9203 149.39 19.02 149.382C19.1197 149.375 19.2385 149.371 19.3765 149.371H21.711V166H18.9855V155.259C18.9855 155.06 18.9893 154.841 18.997 154.603C19.0123 154.366 19.0315 154.124 19.0545 153.879L14.029 163.309C13.914 163.524 13.7645 163.692 13.5805 163.815C13.3965 163.93 13.1818 163.987 12.9365 163.987H12.511C12.2657 163.987 12.051 163.93 11.867 163.815C11.683 163.692 11.5335 163.524 11.4185 163.309L6.324 153.844C6.35467 154.097 6.37383 154.347 6.3815 154.592C6.39683 154.83 6.4045 155.052 6.4045 155.259V166H3.679V149.371H6.0135C6.1515 149.371 6.27033 149.375 6.37 149.382C6.46967 149.39 6.55783 149.409 6.6345 149.44C6.71883 149.471 6.7955 149.52 6.8645 149.589C6.9335 149.658 6.99867 149.75 7.06 149.865L12.028 159.1ZM35.5498 149.371V151.832H28.1783V156.443H33.9858V158.824H28.1783V163.527H35.5498V166H25.0618V149.371H35.5498ZM49.9424 149.371V151.912H44.9399V166H41.8464V151.912H36.8209V149.371H49.9424ZM62.3906 149.371V151.832H55.0191V156.443H60.8266V158.824H55.0191V163.527H62.3906V166H51.9026V149.371H62.3906ZM81.0152 157.685C81.0152 158.904 80.8121 160.035 80.4057 161.078C79.9994 162.113 79.4282 163.01 78.6922 163.769C77.9562 164.528 77.0707 165.122 76.0357 165.551C75.0007 165.973 73.8546 166.184 72.5972 166.184C71.3399 166.184 70.1899 165.973 69.1472 165.551C68.1122 165.122 67.2229 164.528 66.4792 163.769C65.7432 163.01 65.1721 162.113 64.7657 161.078C64.3594 160.035 64.1562 158.904 64.1562 157.685C64.1562 156.466 64.3594 155.339 64.7657 154.304C65.1721 153.262 65.7432 152.361 66.4792 151.602C67.2229 150.843 68.1122 150.253 69.1472 149.831C70.1899 149.402 71.3399 149.187 72.5972 149.187C73.8546 149.187 75.0007 149.402 76.0357 149.831C77.0707 150.26 77.9562 150.854 78.6922 151.613C79.4282 152.365 79.9994 153.262 80.4057 154.304C80.8121 155.339 81.0152 156.466 81.0152 157.685ZM77.8412 157.685C77.8412 156.773 77.7186 155.957 77.4732 155.236C77.2356 154.508 76.8906 153.89 76.4382 153.384C75.9859 152.878 75.4339 152.491 74.7822 152.223C74.1382 151.955 73.4099 151.82 72.5972 151.82C71.7846 151.82 71.0524 151.955 70.4007 152.223C69.7491 152.491 69.1932 152.878 68.7332 153.384C68.2809 153.89 67.9321 154.508 67.6867 155.236C67.4414 155.957 67.3187 156.773 67.3187 157.685C67.3187 158.598 67.4414 159.418 67.6867 160.146C67.9321 160.867 68.2809 161.48 68.7332 161.986C69.1932 162.485 69.7491 162.868 70.4007 163.136C71.0524 163.405 71.7846 163.539 72.5972 163.539C73.4099 163.539 74.1382 163.405 74.7822 163.136C75.4339 162.868 75.9859 162.485 76.4382 161.986C76.8906 161.48 77.2356 160.867 77.4732 160.146C77.7186 159.418 77.8412 158.598 77.8412 157.685ZM86.6573 159.503V166H83.5638V149.371H88.6353C89.7699 149.371 90.7398 149.49 91.5448 149.727C92.3574 149.957 93.0206 150.283 93.5343 150.705C94.0556 151.127 94.4351 151.633 94.6728 152.223C94.9181 152.806 95.0407 153.45 95.0407 154.155C95.0407 154.715 94.9564 155.244 94.7878 155.742C94.6268 156.24 94.3891 156.693 94.0748 157.099C93.7681 157.505 93.3848 157.862 92.9248 158.168C92.4724 158.475 91.9549 158.72 91.3723 158.904C91.7633 159.127 92.1006 159.445 92.3843 159.859L96.5473 166H93.7643C93.4959 166 93.2659 165.946 93.0743 165.839C92.8903 165.732 92.7331 165.578 92.6028 165.379L89.1068 160.054C88.9764 159.855 88.8308 159.713 88.6698 159.629C88.5164 159.545 88.2864 159.503 87.9798 159.503H86.6573ZM86.6573 157.283H88.5893C89.1719 157.283 89.6779 157.21 90.1073 157.064C90.5443 156.919 90.9008 156.719 91.1768 156.466C91.4604 156.206 91.6713 155.899 91.8093 155.546C91.9473 155.194 92.0163 154.807 92.0163 154.385C92.0163 153.542 91.7364 152.894 91.1768 152.441C90.6248 151.989 89.7776 151.763 88.6353 151.763H86.6573V157.283Z" fill="black"/>
<path d="M101.472 149.727H102.404C102.511 149.727 102.599 149.758 102.668 149.819C102.737 149.873 102.791 149.946 102.829 150.038L108.372 163.539C108.518 163.892 108.637 164.267 108.729 164.666C108.813 164.252 108.924 163.876 109.062 163.539L114.594 150.038C114.632 149.954 114.686 149.881 114.755 149.819C114.831 149.758 114.923 149.727 115.031 149.727H115.951L109.235 166H108.188L101.472 149.727ZM124.554 165.16C125.336 165.16 126.033 165.026 126.647 164.758C127.268 164.482 127.793 164.102 128.222 163.619C128.651 163.136 128.977 162.569 129.2 161.917C129.43 161.258 129.545 160.549 129.545 159.79V149.727H130.718V159.79C130.718 160.687 130.576 161.526 130.292 162.308C130.008 163.083 129.598 163.761 129.062 164.344C128.533 164.919 127.885 165.371 127.118 165.701C126.359 166.031 125.504 166.196 124.554 166.196C123.603 166.196 122.744 166.031 121.978 165.701C121.219 165.371 120.571 164.919 120.034 164.344C119.505 163.761 119.099 163.083 118.815 162.308C118.531 161.526 118.39 160.687 118.39 159.79V149.727H119.574V159.778C119.574 160.537 119.685 161.247 119.908 161.906C120.138 162.558 120.463 163.125 120.885 163.608C121.314 164.091 121.836 164.47 122.449 164.746C123.07 165.022 123.772 165.16 124.554 165.16ZM145.159 149.727V150.705H136.592V157.283H143.722V158.237H136.592V165.022H145.159V166H135.407V149.727H145.159Z" fill="#73B685"/>
<defs>
<linearGradient id="paint0_linear" x1="75.7895" y1="0" x2="75.7895" y2="124.342" gradientUnits="userSpaceOnUse">
<stop stop-color="#3D4A5D"/>
<stop offset="0.276042" stop-color="#73B685"/>
<stop offset="1" stop-color="#3D4A5D"/>
</linearGradient>
</defs>
</svg>
